<?xml version="1.0" encoding="UTF-8" standalone="no"?>
<!-- Created with Inkscape (http://www.inkscape.org/) -->

<svg
   xmlns:dc="http://purl.org/dc/elements/1.1/"
   xmlns:cc="http://creativecommons.org/ns#"
   xmlns:rdf="http://www.w3.org/1999/02/22-rdf-syntax-ns#"
   xmlns:svg="http://www.w3.org/2000/svg"
   xmlns="http://www.w3.org/2000/svg"
   xmlns:sodipodi="http://sodipodi.sourceforge.net/DTD/sodipodi-0.dtd"
   xmlns:inkscape="http://www.inkscape.org/namespaces/inkscape"
   width="210mm"
   height="297mm"
   id="svg2961"
   version="1.1"
   inkscape:version="0.48.0 r9654"
   sodipodi:docname="meuble_héraldique_ballon.svg">
  <defs
     id="defs2963">
    <inkscape:perspective
       sodipodi:type="inkscape:persp3d"
       inkscape:vp_x="0 : 526.18109 : 1"
       inkscape:vp_y="0 : 1000 : 0"
       inkscape:vp_z="744.09448 : 526.18109 : 1"
       inkscape:persp3d-origin="372.04724 : 350.78739 : 1"
       id="perspective2969" />
  </defs>
  <sodipodi:namedview
     id="base"
     pagecolor="#ffffff"
     bordercolor="#666666"
     borderopacity="1.0"
     inkscape:pageopacity="0.0"
     inkscape:pageshadow="2"
     inkscape:zoom="0.77254772"
     inkscape:cx="372.04724"
     inkscape:cy="526.18109"
     inkscape:document-units="px"
     inkscape:current-layer="layer1"
     showgrid="false"
     inkscape:window-width="1920"
     inkscape:window-height="1014"
     inkscape:window-x="-4"
     inkscape:window-y="-4"
     inkscape:window-maximized="1"
     showguides="true"
     inkscape:guide-bbox="true" />
  <metadata
     id="metadata2966">
    <rdf:RDF>
      <cc:Work
         rdf:about="">
        <dc:format>image/svg+xml</dc:format>
        <dc:type
           rdf:resource="http://purl.org/dc/dcmitype/StillImage" />
        <dc:title />
      </cc:Work>
    </rdf:RDF>
  </metadata>
  <g
     inkscape:label="Calque 1"
     inkscape:groupmode="layer"
     id="layer1">
    <g
       id="g4248"
       transform="matrix(1.456432,0,0,1.456432,-121.47236,-72.572469)">
      <path
         transform="matrix(1.0174142,0,0,1.0174142,362.71408,-191.91809)"
         d="m 196.75161,581.84106 c 0,122.60322 -99.389549,221.99277 -221.992769,221.99277 -122.603221,0 -221.992771,-99.38955 -221.992771,-221.99277 0,-122.60322 99.38955,-221.99276 221.992771,-221.99276 122.60322,0 221.992769,99.38954 221.992769,221.99276 z"
         sodipodi:ry="221.99277"
         sodipodi:rx="221.99277"
         sodipodi:cy="581.84106"
         sodipodi:cx="-25.241159"
         id="path3910"
         style="opacity:0.98999999;fill:#000000;stroke:#000000;stroke-width:2;stroke-linecap:round;stroke-linejoin:miter;stroke-miterlimit:4;stroke-opacity:1;stroke-dasharray:none"
         sodipodi:type="arc" />
      <path
         sodipodi:nodetypes="ccccccc"
         inkscape:connector-curvature="0"
         id="path4680"
         d="m 332.30264,235.08854 c -20.77099,11.05159 -45.49831,28.604 -74.42906,64.39731 6.79569,31.29905 13.59139,60.49289 20.38709,88.34407 37.89558,11.31382 69.18841,21.52719 102.25905,32.03685 19.37371,-21.92516 43.56693,-46.44061 68.92778,-58.57243 2.2211,-31.8712 -7.08668,-63.80477 -25.24116,-94.81616 -25.73726,-13.6215 -32.54351,-24.26661 -91.9037,-31.38964 z"
         style="fill:#fcef3c;stroke:#000000;stroke-width:2;stroke-linecap:butt;stroke-linejoin:miter;stroke-miterlimit:4;stroke-opacity:1;stroke-dasharray:none" />
      <path
         sodipodi:nodetypes="ccccccc"
         inkscape:connector-curvature="0"
         id="path4682"
         d="m 424.85355,267.449 c 16.58639,-11.90997 26.75496,-18.68568 39.47977,-27.5064 63.62952,35.48109 71.11762,74.41305 83.16638,97.7286 l 1.94163,39.47976 c -10.506,14.87557 -22.75687,27.13384 -40.12697,31.71325 -25.1894,-32.20519 -41.81035,-38.70502 -59.54325,-48.54069 -1.47563,-29.71632 -4.75323,-59.76026 -24.91756,-92.87452 z"
         style="fill:#fcef3c;stroke:#000000;stroke-width:2;stroke-linecap:butt;stroke-linejoin:miter;stroke-miterlimit:4;stroke-opacity:1;stroke-dasharray:none" />
      <path
         sodipodi:nodetypes="ccccccc"
         inkscape:connector-curvature="0"
         id="path4684"
         d="m 278.26067,387.50631 c -19.67202,19.37103 -42.13721,40.60418 -66.98616,63.4265 1.66373,31.60246 4.66979,62.80221 23.29953,89.31487 29.84383,18.63507 60.45196,31.66531 92.87453,31.38965 31.88199,-12.65888 52.80307,-37.84451 72.81103,-64.07371 l -19.73988,-88.02046 z"
         style="fill:#fcef3c;stroke:#000000;stroke-width:2;stroke-linecap:butt;stroke-linejoin:miter;stroke-miterlimit:4;stroke-opacity:1;stroke-dasharray:none" />
      <path
         sodipodi:nodetypes="ccccccc"
         inkscape:connector-curvature="0"
         id="path4686"
         d="m 400.2596,507.24001 c -19.20022,28.2038 -42.41349,51.15977 -72.81103,64.72092 6.55818,18.89768 10.51514,27.39051 15.53302,40.12698 30.2699,2.42657 69.12943,1.114 132.35428,-33.00767 5.39275,-7.35543 10.20054,-13.65793 19.73988,-28.47721 -1.15951,-18.01131 -4.49901,-35.36863 -14.2386,-50.80592 -41.71851,14.58857 -61.70361,11.46843 -80.57755,7.4429 z"
         style="fill:#fcef3c;stroke:#000000;stroke-width:2;stroke-linecap:butt;stroke-linejoin:miter;stroke-miterlimit:4;stroke-opacity:1;stroke-dasharray:none" />
      <path
         sodipodi:nodetypes="cccc"
         inkscape:connector-curvature="0"
         id="path4688"
         d="m 305.44345,624.38488 c 11.70858,-3.71957 17.15895,-2.08979 37.21453,-12.94418 68.49453,5.04961 97.29898,-17.76855 133.6487,-33.97848 -3.70669,2.11687 -59.81593,57.78314 -170.86323,46.92266 z"
         style="fill:#fcef3c;stroke:#000000;stroke-width:2;stroke-linecap:butt;stroke-linejoin:miter;stroke-miterlimit:4;stroke-opacity:1;stroke-dasharray:none" />
      <path
         sodipodi:nodetypes="cccc"
         inkscape:connector-curvature="0"
         id="path4690"
         d="m 173.73638,556.75152 c 0.49903,0.3977 25.8311,13.62002 29.77162,11.64976 8.01281,14.80673 14.76846,19.55615 22.00512,28.1536 -20.67833,-10.97025 -34.86759,-23.71128 -51.77674,-39.80336 z"
         style="fill:#fcef3c;stroke:#000000;stroke-width:2;stroke-linecap:butt;stroke-linejoin:miter;stroke-miterlimit:4;stroke-opacity:1;stroke-dasharray:none" />
      <path
         sodipodi:nodetypes="ccccccc"
         inkscape:connector-curvature="0"
         id="path4692"
         d="m 549.76493,376.82736 c -19.53109,25.15034 -30.5845,29.49183 -40.77418,31.71325 -5.39544,63.08666 -18.44073,64.97451 -28.4772,90.93289 10.49072,18.51844 12.48637,34.48835 14.5622,50.48232 4.8459,-1.26992 9.25715,-1.23587 14.88581,-4.85407 25.96177,-34.39695 49.69729,-71.82402 52.74756,-142.70963 -4.18234,-8.78636 -7.9726,-18.35689 -12.94419,-25.56476 z"
         style="fill:#fcef3c;stroke:#000000;stroke-width:2;stroke-linecap:butt;stroke-linejoin:miter;stroke-miterlimit:4;stroke-opacity:1;stroke-dasharray:none" />
      <path
         sodipodi:nodetypes="cccccccc"
         inkscape:connector-curvature="0"
         id="path4694"
         d="m 151.08406,399.15607 c -9.99177,6.41188 -19.91555,11.80381 -30.74244,30.74244 -0.63152,10.5199 -1.75105,17.03468 -3.23605,24.27035 17.43492,59.00967 38.96878,79.94144 55.9836,101.93545 l 30.41883,12.62058 c 12.15416,-10.51183 21.75997,-19.32476 31.38965,-28.1536 C 218.08694,516.29646 213.238,484.28167 210.95091,450.60921 184.1081,436.10708 166.85194,417.91779 151.08406,399.15607 z"
         style="fill:#fcef3c;stroke:#000000;stroke-width:2;stroke-linecap:butt;stroke-linejoin:miter;stroke-miterlimit:4;stroke-opacity:1;stroke-dasharray:none" />
      <path
         sodipodi:nodetypes="ccccccc"
         inkscape:connector-curvature="0"
         id="path4696"
         d="m 111.60429,417.92514 8.41372,12.62058 c 8.60124,-15.19085 18.8039,-26.5383 31.71326,-31.38965 4.00343,-38.11873 13.07682,-65.46382 23.94674,-88.99126 -1.43805,-16.21629 -3.89209,-31.92458 1.29441,-51.45314 -7.65864,1.5172 -15.31728,4.91221 -22.97592,8.09012 -39.95447,56.40014 -43.85033,112.73527 -42.39221,151.12335 z"
         style="fill:#fcef3c;stroke:#000000;stroke-width:2;stroke-linecap:butt;stroke-linejoin:miter;stroke-miterlimit:4;stroke-opacity:1;stroke-dasharray:none" />
      <path
         sodipodi:nodetypes="ccccccc"
         inkscape:connector-curvature="0"
         id="path4698"
         d="m 176.32522,309.8412 c -3.82168,-14.13685 -4.15334,-31.06572 0.6472,-52.10034 6.42786,-11.49257 12.79903,-27.38526 30.41884,-42.0686 53.72824,-31.93163 87.13837,-28.04105 115.20324,-21.68151 2.91949,11.56781 6.69441,25.8397 10.67895,40.77418 -25.56476,11.40073 -51.12953,38.89978 -76.69429,64.39732 -22.59422,-1.22101 -41.27989,-6.93685 -80.25394,10.67895 z"
         style="fill:#fcef3c;stroke:#000000;stroke-width:2;stroke-linecap:butt;stroke-linejoin:miter;stroke-miterlimit:4;stroke-opacity:1;stroke-dasharray:none" />
      <path
         sodipodi:nodetypes="ccccccccc"
         inkscape:connector-curvature="0"
         id="path4700"
         d="m 323.56531,193.99075 c -42.13093,-12.29624 -80.14675,1.4699 -117.14487,21.68151 55.49877,-35.61391 111.04071,-45.82625 157.98278,-37.73255 -19.34432,6.10322 -24.83231,7.89839 -40.83791,16.05104 z m 229.43567,142.38603 -4.53047,1.61802 c -14.7605,-34.82421 -39.42019,-77.50681 -83.95335,-97.39525 -1.80311,-1.13587 -14.69824,-35.44362 -14.69824,-35.44362 46.42905,22.55125 92.58688,82.3843 103.18206,131.22085 z"
         style="fill:#fcef3c;stroke:#000000;stroke-width:2;stroke-linecap:butt;stroke-linejoin:miter;stroke-miterlimit:4;stroke-opacity:1;stroke-dasharray:none" />
    </g>
  </g>
</svg>
